# xmcd CD database file
#
# Track frame offsets:
#	150
#	17255
#	34401
#	52396
#	71912
#	86208
#	101021
#	119001
#	133460
#	150997
#	163982
#	176837
#	190483
#	204547
#	220367
#	238407
#	252523
#	267204
#	281872
#	295363
#	310514
#
# Disc length: 4380 seconds
#
# Revision: 0
# Processed by: cddbd v1.5.2PL0 Copyright (c) Steve Scherf et al.
# Submitted via: CDex 1.70beta2
#
DISCID=5e111a15
DTITLE=Various Artist - NU COUNTRY TRAXX 173
DYEAR=2013
DGENRE=Country
TTITLE0=I Hold On - Dierks Bentley
TTITLE1=Don't Let Me Be Lonely - The Band Perry
TTITLE2=That Girl - Jennifer Nettles
TTITLE3=I Can't Change The World - Brad Paisley
TTITLE4=That's My Kind Of Night - Luke Bryan
TTITLE5=Chillin' It - Cole Swindell
TTITLE6=Sweet Annie - Zac Brown Band
TTITLE7=Days Of Gold - Jake Owen
TTITLE8=Wherever Love Goes - Kristy Lee Cook ft. Randy Houser
TTITLE9=Cut Me Some Slack - Chris Janson 
TTITLE10=Two Step - Laura Bell Bundy
TTITLE11=Hey Bully - Morgan Frazier
TTITLE12=Love Is War - American Young
TTITLE13=Get Your Redneck On - Krystal Keith
TTITLE14=Too Drunk To Karaoke - Jimmy Buffett and Toby Keith
TTITLE15=Little Bit Gypsy - Kellie Pickler
TTITLE16=Duet - Wes Mack ft. Carly McKillip
TTITLE17=Drink It Gone - Josh Gracin
TTITLE18=Take The Week Off - Deric Ruttan
TTITLE19=Roll The Windows Down - Wyatt
TTITLE20=Days Aren't Long Enough - Clayton Bellamy
EXTD=YEAR: 2013
EXTT0=
EXTT1=
EXTT2=
EXTT3=
EXTT4=
EXTT5=
EXTT6=
EXTT7=
EXTT8=
EXTT9=
EXTT10=
EXTT11=
EXTT12=
EXTT13=
EXTT14=
EXTT15=
EXTT16=
EXTT17=
EXTT18=
EXTT19=
EXTT20=
PLAYORDER=
